<?xml version="1.0" encoding="iso-8859-1"?>
<!-- Generator: Adobe Illustrator 16.0.0, SVG Export Plug-In . SVG Version: 6.00 Build 0)  -->
<!DOCTYPE svg PUBLIC "-//W3C//DTD SVG 1.1//EN" "http://www.w3.org/Graphics/SVG/1.1/DTD/svg11.dtd">
<svg version="1.1" id="Capa_1" xmlns="http://www.w3.org/2000/svg" xmlns:xlink="http://www.w3.org/1999/xlink" x="0px" y="0px"
	 width="94px" height="94px" viewBox="0 0 94 94" style="enable-background:new 0 0 94 94;" xml:space="preserve">
<g>
	<g>
		<path d="M30.536,44.029c-0.822,0-1.469,0.279-1.938,0.842c-0.468,0.563-0.701,1.412-0.701,2.55c0,1.118,0.226,1.962,0.682,2.534
			s1.107,0.859,1.958,0.859c0.876,0,1.538-0.297,1.979-0.892c0.441-0.592,0.663-1.426,0.663-2.503c0-1.063-0.221-1.893-0.659-2.494
			C32.082,44.328,31.42,44.029,30.536,44.029z"/>
		<path d="M42.312,44.1c-0.672,0-1.225,0.281-1.652,0.847c-0.428,0.567-0.641,1.412-0.641,2.537c0,0.932,0.202,1.684,0.609,2.246
			c0.41,0.564,0.978,0.85,1.704,0.85c0.802,0,1.418-0.273,1.846-0.822c0.427-0.549,0.642-1.349,0.642-2.396
			c0-0.976-0.229-1.761-0.688-2.362C43.673,44.4,43.068,44.1,42.312,44.1z"/>
		<path d="M89,0H5C2.239,0,0,2.238,0,5v84c0,2.762,2.239,5,5,5h84c2.762,0,5-2.238,5-5V5C94,2.238,91.762,0,89,0z M18.138,51.611
			c-0.824,1.108-1.973,1.66-3.448,1.66c-1.461,0-2.788-0.563-3.468-1.693h-0.041v1.396H8.572V37.979h2.927v5.497h0.04
			c0.722-1.157,1.791-1.734,3.212-1.734c1.346,0,2.453,0.51,3.319,1.535c0.868,1.021,1.3,2.419,1.3,4.187
			C19.37,49.24,18.958,50.509,18.138,51.611z M23.714,52.977h-2.928V37.979h2.928V52.977z M34.621,51.707
			c-1.045,1.043-2.404,1.564-4.085,1.564c-1.652,0-3.006-0.518-4.063-1.556c-1.059-1.039-1.585-2.473-1.585-4.301
			c0-1.844,0.526-3.28,1.585-4.306c1.058-1.028,2.411-1.54,4.063-1.54c1.692,0,3.059,0.525,4.093,1.576
			c1.038,1.051,1.557,2.475,1.557,4.27C36.185,49.232,35.664,50.661,34.621,51.707z M47.902,52.529c0,2.173-1.09,4.978-5.62,4.978
			c-2.781,0.126-4.717-2.114-4.717-2.114l1.429-1.619c0.277,0.443,1.008,1.5,3.432,1.52c1.536,0,2.549-0.801,2.549-2.404v-1.477
			c0,0-1.003,1.436-3.008,1.436c-1.448,0-2.782-0.481-3.652-1.483c-0.87-1.005-1.305-1.788-1.305-4.07
			c0-1.788,0.435-3.018,1.301-4.031c0.867-1.015,2.148-1.519,3.492-1.519c1.536,0,2.623,0.645,3.254,1.936l0.042-0.17v-1.651h2.803
			V52.529L47.902,52.529z M55.395,49.87c-0.449,0.59-1.031,0.884-1.74,0.884c-0.795,0-1.428-0.271-1.895-0.818
			c-0.469-0.545-0.701-1.312-0.701-2.304c0-1.131,0.207-1.997,0.625-2.593c0.414-0.6,1.045-0.9,1.892-0.9
			c0.782,0,1.396,0.289,1.835,0.863c0.438,0.575,0.66,1.395,0.66,2.46C56.07,48.479,55.846,49.283,55.395,49.87z M85.428,50.641
			c0,0.377-0.307,0.684-0.685,0.684h-3.687c0.269-0.463,0.406-0.982,0.406-1.62c0-0.492-0.107-0.94-0.326-1.345l0,0
			c-0.107-0.241-0.253-0.465-0.438-0.67c-0.301-0.332-0.717-0.635-1.564-0.908c-0.148-0.051-0.301-0.104-0.465-0.148l-0.011,0.003
			c-0.286-0.08-0.591-0.158-0.929-0.235c-1.612-0.361-2.472-0.57-2.711-0.723c-0.24-0.15-0.361-0.299-0.361-0.577
			c0-0.287,0.244-0.678,0.529-0.864c0.285-0.188,0.729-0.267,1.332-0.267c2.311,0,2.928,1.473,2.928,1.473l1.637-1.262
			c-0.365-0.616-1.682-2.266-4.705-2.266c-1.536,0-2.699,0.335-3.484,1.002c-0.783,0.67-1.178,1.528-1.178,2.578
			c0,2.666,5.348,3.496,6.18,3.709c1.01,0.237,1.105,2.218-1.444,2.104c-2.384,0-3.44-1.884-3.44-1.884l-1.406,1.458
			c0.045,0.119,0.151,0.276,0.285,0.441h-1.24v-9.378h-2.935v6.283c0,0.791-0.21,1.404-0.633,1.832
			c-0.424,0.43-1.308,0.797-1.97,0.797c-0.611,0-1.082-0.159-1.409-0.483c-0.326-0.323-0.492-0.981-0.492-1.677v-6.751h-2.935V49.1
			c0,0.889,0.158,1.625,0.466,2.225h-2.782c0.745-1.059,1.122-2.411,1.122-4.061c0-1.729-0.435-3.011-1.304-4.011
			c-0.866-1.001-1.979-1.416-3.327-1.416c-1.425,0-2.497,0.565-3.22,1.695h-0.043v-5.378h-2.933v-0.982
			c0-0.378,0.308-0.684,0.683-0.684h35.804c0.378,0,0.685,0.306,0.685,0.684V50.641z"/>
		<path d="M13.875,44.1c-0.844,0-1.474,0.306-1.886,0.917c-0.416,0.611-0.624,1.499-0.624,2.653c0,1.016,0.233,1.801,0.699,2.357
			c0.466,0.558,1.096,0.838,1.892,0.838c0.707,0,1.286-0.301,1.733-0.905c0.45-0.603,0.673-1.421,0.673-2.464
			c0-1.087-0.218-1.927-0.657-2.514C15.265,44.394,14.656,44.1,13.875,44.1z"/>
	</g>
</g>
<g>
</g>
<g>
</g>
<g>
</g>
<g>
</g>
<g>
</g>
<g>
</g>
<g>
</g>
<g>
</g>
<g>
</g>
<g>
</g>
<g>
</g>
<g>
</g>
<g>
</g>
<g>
</g>
<g>
</g>
</svg>
